<svg width="1920" height="329" viewBox="0 0 1920 329" fill="none" xmlns="http://www.w3.org/2000/svg">
<g filter="url(#filter0_d_539_1895)">
<path d="M1863.52 127.474C1866.36 122.364 1866.02 116.732 1862.57 111.785C1859.11 106.838 1852.82 102.97 1845.05 101.01C1837.27 99.0504 1828.63 99.1542 1820.96 101.3C1813.3 103.445 1807.24 107.461 1804.07 112.488C1795.01 106 1783.16 101.45 1770.06 99.4349C1756.97 97.4198 1743.24 98.034 1730.69 101.197C1718.14 104.36 1707.36 109.923 1699.75 117.156C1692.14 124.389 1688.06 132.954 1688.05 141.725C1688.05 142.779 1688.13 143.826 1688.25 144.858C1682.97 141.079 1675.74 138.702 1667.94 138.179C1660.14 137.657 1652.32 139.026 1645.97 142.026C1639.62 145.025 1635.19 149.445 1633.52 154.439C1631.86 159.434 1633.07 164.653 1636.94 169.1C1635.6 168.918 1634.24 168.826 1632.88 168.826C1629.47 168.82 1626.13 169.394 1623.18 170.492C1620.22 171.589 1617.76 173.171 1616.03 175.081C1614.31 176.99 1613.38 179.161 1613.33 181.378C1613.29 183.595 1614.14 185.78 1615.8 187.716C1614.98 187.679 1614.17 187.635 1613.34 187.635C1605.13 187.629 1597.23 189.689 1591.29 193.385C1585.35 197.081 1581.83 202.128 1581.46 207.475H1581.3C1581.3 207.149 1581.38 206.83 1581.38 206.503C1581.38 200.983 1578.01 195.689 1572.02 191.786C1566.04 187.883 1557.92 185.69 1549.45 185.69C1540.98 185.69 1532.86 187.883 1526.87 191.786C1520.89 195.689 1517.52 200.983 1517.52 206.503C1517.53 207.685 1517.7 208.864 1518.01 210.029C1508.13 205.626 1496.11 203.74 1484.24 204.729C1486.66 201.894 1487.81 198.672 1487.56 195.432C1487.31 192.191 1485.66 189.062 1482.81 186.401C1479.96 183.74 1476.03 181.655 1471.45 180.384C1466.87 179.112 1461.83 178.706 1456.91 179.21C1458.81 176.941 1459.91 174.425 1460.13 171.844C1460.34 169.264 1459.67 166.684 1458.17 164.293C1456.66 161.903 1454.36 159.762 1451.42 158.026C1448.48 156.29 1444.99 155.003 1441.19 154.26C1437.39 153.516 1433.39 153.334 1429.47 153.727C1425.55 154.12 1421.82 155.078 1418.54 156.531C1415.26 157.984 1412.52 159.896 1410.52 162.127C1408.52 164.358 1407.31 166.852 1406.97 169.427C1398.76 169.719 1390.79 171.35 1383.79 174.171C1376.8 176.991 1371 180.911 1366.93 185.571C1362.03 182.508 1355.5 180.797 1348.71 180.798C1348.3 180.798 1347.91 180.798 1347.5 180.835C1348.99 177.378 1349.08 173.729 1347.76 170.243C1346.44 166.757 1343.76 163.554 1339.97 160.945C1336.19 158.336 1331.43 156.411 1326.17 155.357C1320.9 154.303 1315.31 154.156 1309.93 154.93C1309.93 154.76 1309.93 154.596 1309.93 154.433C1309.94 152.371 1309.18 150.338 1307.71 148.511C1306.24 146.684 1304.11 145.118 1301.51 143.948C1298.9 142.778 1295.9 142.04 1292.76 141.798C1289.62 141.555 1286.43 141.816 1283.48 142.557C1285.04 138.406 1285.3 134.095 1284.27 129.876C1283.23 125.657 1280.91 121.615 1277.45 117.988C1273.98 114.361 1269.44 111.223 1264.09 108.756C1258.74 106.289 1252.68 104.544 1246.28 103.624C1239.88 102.704 1233.27 102.626 1226.82 103.397C1220.37 104.167 1214.23 105.769 1208.74 108.109C1203.26 110.449 1198.55 113.479 1194.88 117.023C1191.22 120.566 1188.68 124.551 1187.42 128.743C1180.31 127.415 1172.77 127.427 1165.68 128.776C1158.58 130.125 1152.22 132.757 1147.32 136.366C1146.9 129.271 1143.82 122.352 1138.34 116.214C1132.87 110.076 1125.17 104.906 1115.92 101.155C1106.68 97.4047 1096.16 95.1885 1085.29 94.7003C1074.43 94.2121 1063.54 95.4669 1053.59 98.3548C1051.47 92.792 1046.55 87.8517 1039.63 84.3198C1032.7 80.7879 1024.16 78.867 1015.37 78.8628H1014.79C1015.72 76.1275 1015.5 73.2785 1014.14 70.6194C1012.79 67.9602 1010.35 65.5904 1007.1 63.7624C1003.84 61.9343 999.881 60.7165 995.646 60.2386C991.411 59.7607 987.056 60.0405 983.045 61.0484C982.385 58.1703 980.497 55.4712 977.595 53.2596C974.694 51.0479 970.897 49.4129 966.638 48.5412L955 41.5C948.383 38.664 940.821 39.0764 934.552 42.6153L924.737 48.1552C923.244 47.9262 921.716 47.8091 920.182 47.8064C914.765 47.8064 909.569 49.2093 905.739 51.7066C901.908 54.2039 899.756 57.5909 899.756 61.1226C899.757 61.9347 899.875 62.7448 900.109 63.5424C895.512 62.3997 890.559 62.0023 885.675 62.3844C880.791 62.7665 876.122 63.9167 872.071 65.736C868.02 67.5552 864.708 69.989 862.42 72.8278C860.132 75.6667 858.936 78.8255 858.936 82.0323C857.872 81.9137 856.794 81.8516 855.714 81.8467C851.983 81.8495 848.331 82.5503 845.192 83.8661C842.054 85.1819 839.56 87.0572 838.009 89.2694C827.956 84.9542 816.299 82.4937 804.274 82.1489C792.25 81.8041 780.306 83.588 769.711 87.3112C759.117 91.0344 750.266 96.5581 744.098 103.296C737.93 110.034 734.675 117.735 734.679 125.581C734.679 126.45 734.679 127.311 734.805 128.172C733.402 126.727 731.568 125.482 729.41 124.51C727.253 123.538 724.817 122.86 722.248 122.516C719.679 122.172 717.031 122.17 714.46 122.508C711.89 122.847 709.451 123.52 707.288 124.487C705.126 125.454 703.285 126.696 701.876 128.137C700.466 129.579 699.517 131.191 699.085 132.877C698.653 134.563 698.747 136.289 699.362 137.951C699.976 139.613 701.099 141.177 702.662 142.549C694.488 141.135 685.823 141.553 678.058 143.737C670.293 145.92 663.879 149.742 659.848 154.588C655.817 159.434 654.403 165.023 655.832 170.457C657.261 175.89 661.451 180.853 667.729 184.547C663.709 184.02 659.555 184.114 655.6 184.821C651.646 185.529 648 186.83 644.957 188.622C646.603 184.563 645.92 180.252 643.034 176.499C640.149 172.745 635.261 169.808 629.288 168.238C623.315 166.669 616.668 166.575 610.597 167.975C604.525 169.374 599.446 172.171 596.315 175.84C594.033 170.581 589.641 165.813 583.592 162.028C577.544 158.244 570.057 155.578 561.902 154.307C553.748 153.036 545.222 153.205 537.201 154.797C529.18 156.388 521.955 159.345 516.27 163.363C516.87 161.925 517.176 160.443 517.181 158.953C517.191 155.641 515.734 152.398 512.987 149.612C510.239 146.826 506.316 144.616 501.69 143.247C497.064 141.878 491.929 141.408 486.904 141.894C481.878 142.38 477.174 143.801 473.356 145.986C475.027 141.229 475.154 136.296 473.73 131.505C472.307 126.714 469.363 122.169 465.088 118.163C460.814 114.156 455.302 110.776 448.907 108.239C442.512 105.702 435.374 104.064 427.951 103.43C420.528 102.796 412.984 103.18 405.802 104.557C398.62 105.934 391.959 108.274 386.245 111.428C380.531 114.581 375.891 118.478 372.621 122.868C369.352 127.258 367.526 132.046 367.26 136.923C363.451 133.836 358.126 131.699 352.182 130.873C346.238 130.048 340.039 130.583 334.63 132.39C329.222 134.196 324.934 137.163 322.49 140.791C320.046 144.418 319.596 148.484 321.214 152.303C320.896 152.303 320.577 152.303 320.258 152.303C315.309 152.305 310.546 153.533 306.934 155.738C303.321 157.943 301.128 160.96 300.799 164.179C295.598 162.558 289.852 161.821 284.096 162.038C278.341 162.255 272.763 163.417 267.883 165.418C263.002 167.418 258.978 170.192 256.185 173.479C253.391 176.767 251.92 180.462 251.907 184.22C251.908 185.746 252.148 187.269 252.624 188.763C252.385 188.763 252.157 188.763 251.907 188.763C247.779 188.763 243.757 189.617 240.42 191.202C237.083 192.786 234.603 195.02 233.336 197.581C230.721 193.08 226.521 189.043 221.074 185.794C215.628 182.545 209.087 180.175 201.978 178.875C194.87 177.575 187.393 177.382 180.148 178.31C172.904 179.238 166.096 181.263 160.271 184.22C159.306 182.562 157.818 181.054 155.903 179.795C153.988 178.535 151.689 177.551 149.154 176.907C146.619 176.263 143.906 175.972 141.188 176.054C138.47 176.136 135.81 176.589 133.377 177.384C135.685 173.133 136.545 168.606 135.898 164.117C135.251 159.627 133.113 155.284 129.632 151.388C126.151 147.491 121.41 144.136 115.74 141.554C110.069 138.972 103.604 137.226 96.7943 136.437C89.9844 135.648 82.9926 135.835 76.3046 136.985C69.6166 138.134 63.3927 140.22 58.0653 143.095C52.7379 145.971 48.4347 149.568 45.4546 153.637C42.4744 157.706 40.8888 162.149 40.8079 166.658C18.3185 166.495 0 184.68 0 207.17V327.5H1921V196.643C1921 162.754 1896.84 133.679 1863.52 127.474ZM1455.56 213.918L1455.06 213.785L1455.3 213.384C1455.6 213.428 1455.92 213.458 1456.24 213.488L1455.56 213.918Z" fill="#FAFAFA"/>
</g>
<defs>
<filter id="filter0_d_539_1895" x="-10" y="0.632774" width="1961" height="327.867" filterUnits="userSpaceOnUse" color-interpolation-filters="sRGB">
<feFlood flood-opacity="0" result="BackgroundImageFix"/>
<feColorMatrix in="SourceAlpha" type="matrix" values="0 0 0 0 0 0 0 0 0 0 0 0 0 0 0 0 0 0 127 0" result="hardAlpha"/>
<feOffset dx="10" dy="-19"/>
<feGaussianBlur stdDeviation="10"/>
<feComposite in2="hardAlpha" operator="out"/>
<feColorMatrix type="matrix" values="0 0 0 0 0 0 0 0 0 0 0 0 0 0 0 0 0 0 0.1 0"/>
<feBlend mode="normal" in2="BackgroundImageFix" result="effect1_dropShadow_539_1895"/>
<feBlend mode="normal" in="SourceGraphic" in2="effect1_dropShadow_539_1895" result="shape"/>
</filter>
</defs>
</svg>
