<svg width="1919" height="405" viewBox="0 0 1919 405" fill="none" xmlns="http://www.w3.org/2000/svg">
<path opacity="0.9" d="M64.717 97.8117C62.198 92.4213 62.7385 86.5626 66.2271 81.4416C69.7156 76.3206 75.8867 72.3268 83.4705 70.2824C91.0542 68.238 99.4735 68.2984 106.995 70.4513C114.517 72.6041 120.569 76.6856 123.906 81.8556C132.92 74.9429 144.723 70.0937 157.764 67.9454C170.804 65.797 184.472 66.4501 196.97 69.8187C209.468 73.1874 220.212 79.1139 227.79 86.8194C235.368 94.525 239.424 103.649 239.427 112.992C239.427 114.111 239.348 115.223 239.23 116.322C244.505 112.331 251.698 109.83 259.443 109.293C267.188 108.756 274.946 110.22 281.245 113.408C287.545 116.596 291.946 121.285 293.614 126.586C295.282 131.887 294.101 137.431 290.295 142.165C293.127 141.74 296.059 141.763 298.877 142.232C301.694 142.702 304.325 143.605 306.577 144.876C308.828 146.147 310.643 147.753 311.888 149.577C313.132 151.401 313.775 153.396 313.769 155.415C313.773 157.715 312.932 159.977 311.327 161.986C312.135 161.945 312.942 161.897 313.769 161.897C321.939 161.9 329.793 164.097 335.7 168.033C341.606 171.968 345.111 177.339 345.485 183.03H345.633C345.633 182.686 345.555 182.343 345.555 181.993C345.701 176.182 349.115 170.643 355.061 166.569C361.006 162.496 369.009 160.213 377.344 160.213C385.68 160.213 393.682 162.496 399.628 166.569C405.574 170.643 408.988 176.182 409.135 181.993C409.121 183.254 408.956 184.513 408.642 185.755C416.764 181.886 426.376 179.822 436.213 179.837C438.284 179.84 440.353 179.934 442.407 180.119C440.19 177.302 439.064 174.131 439.139 170.919C439.214 167.706 440.488 164.563 442.835 161.798C445.182 159.033 448.522 156.743 452.525 155.152C456.528 153.56 461.057 152.724 465.664 152.724C466.984 152.729 468.301 152.805 469.603 152.951C467.712 150.535 466.617 147.855 466.4 145.106C466.182 142.358 466.847 139.61 468.346 137.064C469.845 134.518 472.141 132.237 475.065 130.387C477.989 128.538 481.468 127.167 485.249 126.375C489.029 125.582 493.016 125.388 496.917 125.806C500.819 126.225 504.538 127.245 507.802 128.793C511.067 130.34 513.795 132.377 515.787 134.753C517.779 137.129 518.986 139.786 519.319 142.528C527.493 142.837 535.425 144.569 542.391 147.568C549.356 150.567 555.131 154.736 559.188 159.693C564.074 156.429 570.58 154.609 577.345 154.612C577.749 154.612 578.143 154.612 578.537 154.653C577.048 150.971 576.955 147.082 578.267 143.367C579.578 139.652 582.25 136.237 586.02 133.458C589.791 130.678 594.531 128.628 599.778 127.507C605.024 126.387 610.598 126.235 615.954 127.067C615.954 126.888 615.954 126.71 615.954 126.531C615.951 124.336 616.714 122.173 618.177 120.229C619.64 118.286 621.759 116.619 624.351 115.374C626.944 114.128 629.932 113.341 633.058 113.081C636.184 112.82 639.354 113.093 642.294 113.878C640.744 109.458 640.475 104.866 641.505 100.373C642.535 95.8795 644.843 91.5751 648.292 87.7124C651.741 83.8496 656.263 80.5065 661.591 77.8793C666.92 75.2522 672.948 73.394 679.32 72.414C685.693 71.434 692.282 71.3518 698.701 72.1724C705.12 72.993 711.239 74.6998 716.699 77.1925C722.159 79.6852 726.849 82.9135 730.494 86.6878C734.139 90.4622 736.666 94.7064 737.925 99.1711C745 97.7582 752.504 97.7712 759.568 99.2086C766.633 100.646 772.969 103.449 777.844 107.293C778.26 99.7369 781.326 92.3668 786.773 85.8276C792.22 79.2885 799.881 73.7795 809.088 69.7826C818.294 65.7858 828.765 63.4227 839.584 62.9002C850.404 62.3776 861.242 63.7116 871.151 66.7852C873.268 60.87 878.156 55.6169 885.042 51.8594C891.927 48.1019 900.415 46.0551 909.159 46.0438C909.356 46.0438 909.543 46.0438 909.74 46.0438C909.356 44.8702 909.161 43.6704 909.159 42.4667C909.147 39.7841 910.075 37.1401 911.861 34.7642C913.647 32.3884 916.239 30.3525 919.41 28.8336C922.581 27.3146 926.236 26.3585 930.057 26.0482C933.879 25.7379 937.751 26.0828 941.338 27.053C942.006 23.9956 943.891 21.1304 946.779 18.783C949.667 16.4356 953.442 14.7004 957.674 13.7746L960.973 9.86029C966.244 3.60811 974.004 0 982.182 0C984.82 0 987.345 1.06813 989.183 2.96095L999.335 13.4176C1002.32 12.9314 1005.42 12.9221 1008.4 13.3904C1011.39 13.8587 1014.18 14.7925 1016.58 16.1216C1018.97 17.4507 1020.91 19.1407 1022.23 21.0648C1023.56 22.9889 1024.24 25.0972 1024.23 27.2315C1024.22 28.0956 1024.11 28.9576 1023.87 29.8062C1028.45 28.5806 1033.38 28.15 1038.25 28.5516C1043.12 28.9532 1047.78 30.1749 1051.82 32.1112C1055.86 34.0475 1059.16 36.6403 1061.44 39.6657C1063.72 42.6912 1064.92 46.0584 1064.91 49.4766C1065.97 49.3476 1067.04 49.281 1068.11 49.2775C1071.83 49.2777 1075.46 50.0196 1078.58 51.4153C1081.71 52.811 1084.2 54.802 1085.75 57.1526C1095.76 52.5543 1107.36 49.9314 1119.34 49.5623C1131.31 49.1931 1143.21 51.0914 1153.76 55.0558C1164.31 59.0201 1173.12 64.9025 1179.27 72.0786C1185.41 79.2547 1188.65 87.4566 1188.65 95.8137C1188.65 96.7406 1188.6 97.6606 1188.53 98.56C1189.92 97.0144 1191.75 95.6808 1193.89 94.6393C1196.04 93.5978 1198.47 92.87 1201.03 92.4995C1203.6 92.1291 1206.24 92.1237 1208.81 92.4836C1211.37 92.8436 1213.81 93.5614 1215.96 94.5941C1218.12 95.6267 1219.96 96.9528 1221.36 98.4928C1222.77 100.033 1223.71 101.755 1224.14 103.555C1224.56 105.356 1224.46 107.198 1223.84 108.97C1223.22 110.743 1222.09 112.41 1220.52 113.871C1228.66 112.359 1237.29 112.8 1245.03 115.123C1252.76 117.446 1259.15 121.516 1263.17 126.678C1267.18 131.84 1268.59 137.794 1267.17 143.582C1265.74 149.37 1261.56 154.655 1255.31 158.587C1259.31 158.034 1263.44 158.138 1267.37 158.891C1271.3 159.644 1274.93 161.026 1277.96 162.927C1276.32 158.605 1277 154.016 1279.88 150.02C1282.75 146.025 1287.61 142.898 1293.56 141.227C1299.51 139.556 1306.12 139.457 1312.17 140.947C1318.21 142.436 1323.26 145.413 1326.38 149.319C1328.66 143.72 1333.03 138.644 1339.05 134.615C1345.07 130.585 1352.52 127.748 1360.64 126.394C1368.76 125.041 1377.24 125.221 1385.23 126.915C1393.21 128.609 1400.4 131.757 1406.06 136.033C1404.6 132.233 1404.92 128.205 1406.99 124.544C1409.06 120.883 1412.77 117.784 1417.56 115.706C1422.35 113.627 1427.98 112.679 1433.6 113.001C1439.23 113.323 1444.56 114.899 1448.8 117.496C1447.11 112.426 1446.97 107.167 1448.38 102.056C1449.78 96.9456 1452.71 92.0966 1456.96 87.8207C1461.21 83.5448 1466.7 79.9365 1473.07 77.2279C1479.45 74.5192 1486.56 72.77 1493.96 72.0927C1501.36 71.4153 1508.88 71.8248 1516.04 73.2948C1523.2 74.7648 1529.84 77.2628 1535.53 80.6283C1541.22 83.9939 1545.84 88.1524 1549.09 92.8369C1552.34 97.5213 1554.15 102.628 1554.4 107.829C1558.19 104.526 1563.5 102.238 1569.43 101.353C1575.37 100.468 1581.55 101.041 1586.95 102.974C1592.35 104.907 1596.62 108.082 1599.04 111.96C1601.46 115.838 1601.88 120.181 1600.24 124.252C1600.55 124.252 1600.87 124.252 1601.22 124.252C1606.15 124.253 1610.89 125.559 1614.49 127.906C1618.08 130.253 1620.26 133.465 1620.59 136.892C1625.77 135.174 1631.48 134.397 1637.2 134.633C1642.92 134.869 1648.47 136.111 1653.32 138.243C1658.16 140.375 1662.16 143.327 1664.93 146.826C1667.7 150.324 1669.16 154.255 1669.17 158.251C1669.16 159.866 1668.93 161.476 1668.46 163.057C1668.69 163.057 1668.93 163.057 1669.17 163.057C1673.28 163.057 1677.28 163.966 1680.6 165.654C1683.93 167.342 1686.4 169.721 1687.66 172.449C1690.26 167.652 1694.44 163.349 1699.87 159.885C1705.29 156.422 1711.81 153.896 1718.89 152.51C1725.97 151.125 1733.42 150.919 1740.64 151.909C1747.86 152.899 1754.64 155.057 1760.44 158.21C1761.85 155.651 1764.33 153.45 1767.57 151.897C1770.81 150.344 1774.64 149.512 1778.57 149.511C1781.57 149.513 1784.53 150 1787.22 150.932C1785.41 147.388 1784.49 143.653 1784.5 139.892C1784.5 131.119 1789.5 122.705 1798.4 116.501C1807.29 110.298 1819.36 106.813 1831.94 106.813C1844.43 106.812 1856.42 110.247 1865.3 116.37C1874.18 122.494 1879.24 130.813 1879.37 139.521C1901.76 139.343 1920 157.441 1920 179.827V405H0V175.021C0 136.998 27.2786 104.454 64.717 97.8117ZM470.883 189.868L471.376 189.724C471.287 189.58 471.218 189.435 471.129 189.298L470.145 189.408L470.883 189.868Z" fill="#FAFAFA"/>
</svg>
