<svg width="302" height="645" viewBox="0 0 302 645" fill="none" xmlns="http://www.w3.org/2000/svg">
<path d="M182.254 396.178H117.94C117.94 396.178 96.9054 444.947 99.7451 516.69C103.024 508.504 106.606 500.936 110.455 494.065C110.646 493.759 110.874 493.586 111.11 493.567C111.346 493.547 111.579 493.683 111.78 493.956C111.981 494.23 112.141 494.629 112.239 495.102C112.337 495.576 112.369 496.103 112.331 496.617C111.192 512.822 112.173 561.437 150.089 644.008C188.004 561.437 188.986 512.822 187.846 496.617C187.805 496.097 187.835 495.561 187.934 495.08C188.032 494.598 188.194 494.194 188.399 493.918C188.603 493.643 188.84 493.509 189.079 493.535C189.318 493.562 189.548 493.746 189.739 494.065C193.58 500.943 197.157 508.51 200.432 516.69C203.342 444.947 182.254 396.178 182.254 396.178Z" fill="url(#paint0_linear_166_552)"/>
<path d="M150.562 372.059C150.562 372.059 109.548 404.608 150.562 460.666C191.559 404.608 150.562 372.059 150.562 372.059Z" fill="#FFE697"/>
<path d="M150.558 392.862C150.558 392.862 126.124 412.305 150.558 445.814C175.114 412.322 150.558 392.862 150.558 392.862Z" fill="white"/>
<path d="M104.538 382.338L109.198 391.309C110.172 393.185 111.642 394.759 113.449 395.857C115.255 396.956 117.328 397.538 119.443 397.54H181.208C183.322 397.538 185.396 396.956 187.202 395.857C189.009 394.759 190.479 393.185 191.453 391.309L196.113 382.338H104.538Z" fill="#949494"/>
<path d="M91.3438 365.304L97.33 376.858C98.5801 379.279 100.473 381.309 102.8 382.725C105.127 384.141 107.8 384.889 110.524 384.886H190.092C192.816 384.889 195.489 384.141 197.816 382.725C200.143 381.309 202.036 379.279 203.286 376.858L209.272 365.304H91.3438Z" fill="#4D4D4D"/>
<path d="M207.197 276.679C207.197 276.679 307.568 311.148 301.18 412.008C301.18 412.008 216.674 325.931 170.686 344.343L207.197 276.679Z" fill="#1A77F2"/>
<path opacity="0.08" d="M207.197 276.679L170.686 344.361C172.388 343.708 174.139 343.189 175.921 342.808L213.34 289.262C213.34 289.262 285.944 322.318 301.25 412.025C307.568 311.201 207.197 276.679 207.197 276.679Z" fill="#1D1D1D"/>
<path d="M94.2757 276.679C94.2757 276.679 -6.09527 311.201 0.292451 412.008C0.292451 412.008 84.7988 325.931 130.787 344.343L94.2757 276.679Z" fill="#1A77F2"/>
<g opacity="0.08">
<path d="M127.719 347.38L91.2074 279.786C91.2074 279.786 90.1952 280.135 88.45 280.833C93.239 294.613 93.0605 309.635 87.9453 323.297C82.83 336.96 73.0998 348.406 60.4381 355.653C42.0604 366.299 20.9251 383.717 0.295898 412.078C15.7765 396.981 86.8967 331.027 127.719 347.38Z" fill="#1D1D1D"/>
</g>
<path d="M199.059 83.8432C187.19 53.5867 170.744 25.3328 150.296 0.0698242C130.019 25.0683 113.67 53.0111 101.812 82.9357C133.838 75.4873 167.179 75.7984 199.059 83.8432Z" fill="#1A77F2"/>
<path opacity="0.33" d="M139.392 24.975C128.307 39.6189 119.401 55.7909 112.951 72.9876C118.49 71.482 124.18 70.5981 129.915 70.3522C134.977 42.6721 139.392 24.975 139.392 24.975Z" fill="#EBEBEB"/>
<path opacity="0.33" d="M123.791 94.9606C118.055 95.1759 112.363 96.0484 106.826 97.5611C71.3972 188.909 85.6911 315.232 90.7349 350.888C91.1182 353.573 92.4713 356.025 94.5389 357.781C96.6064 359.537 99.2453 360.475 101.957 360.418L115.78 360.068C117.526 360.039 119.24 359.597 120.783 358.779C122.325 357.96 123.652 356.787 124.655 355.358C125.658 353.928 126.308 352.281 126.552 350.551C126.796 348.822 126.627 347.06 126.059 345.408C99.1123 267.324 112.725 156.412 123.791 94.9606Z" fill="#EBEBEB"/>
<path d="M200.392 87.2639L199.048 83.7734C145.363 70.0031 101.871 82.8658 101.871 82.8658L100.126 87.1941C55.7607 202.086 75.8662 326.803 83.0044 362.006C83.5735 364.753 85.0709 367.221 87.2448 368.994C89.4187 370.767 92.1366 371.739 94.9421 371.744H205.506C208.311 371.739 211.029 370.767 213.203 368.994C215.377 367.221 216.874 364.753 217.443 362.006C224.651 326.908 244.774 202.156 200.392 87.2639Z" fill="#FAFAFA"/>
<path d="M148.29 217.863C171.028 217.863 189.461 199.43 189.461 176.692C189.461 153.954 171.028 135.521 148.29 135.521C125.552 135.521 107.119 153.954 107.119 176.692C107.119 199.43 125.552 217.863 148.29 217.863Z" fill="#043146"/>
<path d="M162.342 207.701C178.416 201.043 186.049 182.615 179.391 166.542C172.733 150.468 154.305 142.835 138.231 149.493C122.157 156.151 114.524 174.578 121.182 190.652C127.84 206.726 146.268 214.359 162.342 207.701Z" fill="#7C7C7C"/>
<path d="M148.294 207.898C165.529 207.898 179.5 193.926 179.5 176.692C179.5 159.458 165.529 145.486 148.294 145.486C131.06 145.486 117.089 159.458 117.089 176.692C117.089 193.926 131.06 207.898 148.294 207.898Z" fill="#4ED3D7"/>
<g opacity="0.08">
<path d="M150.299 150.775C156.157 150.774 161.896 152.426 166.857 155.542C171.818 158.657 175.8 163.108 178.345 168.385C177.186 164.214 175.172 160.331 172.43 156.982C169.688 153.633 166.278 150.892 162.419 148.933C158.559 146.975 154.334 145.841 150.012 145.605C145.69 145.369 141.367 146.036 137.317 147.562C133.267 149.089 129.579 151.443 126.489 154.473C123.398 157.504 120.973 161.144 119.367 165.164C117.761 169.183 117.009 173.493 117.161 177.818C117.312 182.144 118.362 186.39 120.245 190.288C118.947 185.656 118.741 180.786 119.643 176.06C120.544 171.335 122.529 166.883 125.441 163.054C128.354 159.225 132.114 156.124 136.427 153.993C140.74 151.863 145.488 150.761 150.299 150.775Z" fill="#1D1D1D"/>
</g>
<path d="M150.682 289.245C117.05 365.793 150.682 431.974 150.682 431.974C150.682 431.974 184.366 365.793 150.682 289.245Z" fill="#1A77F2"/>
<path opacity="0.23" d="M150.683 319.822C144.436 341.435 144.436 364.374 150.683 385.986C156.941 364.375 156.941 341.433 150.683 319.822Z" fill="white"/>
<path opacity="0.08" d="M200.321 87.2639L198.977 83.7734C187.108 53.5168 170.662 25.2629 150.214 0C145.816 5.41036 141.697 10.9254 137.753 16.5103C168.4 44.4348 244.878 139.971 197.703 371.727H205.522C208.328 371.721 211.046 370.75 213.22 368.977C215.393 367.203 216.891 364.736 217.46 361.988C224.615 326.908 244.704 202.156 200.321 87.2639Z" fill="#1D1D1D"/>
<defs>
<linearGradient id="paint0_linear_166_552" x1="150.089" y1="396.178" x2="150.089" y2="644.008" gradientUnits="userSpaceOnUse">
<stop offset="0.01" stop-color="#F7BD6F"/>
<stop offset="0.45" stop-color="#F39958"/>
<stop offset="1" stop-color="#ED6637"/>
</linearGradient>
</defs>
</svg>
