<svg width="168" height="264" viewBox="0 0 168 264" fill="none" xmlns="http://www.w3.org/2000/svg">
<path d="M72.896 260.818C74.1711 257.475 76.1634 254.455 78.7326 251.968C81.3018 249.482 84.3853 247.591 87.766 246.428C90.0159 245.65 92.1546 244.465 94.3342 243.479C92.3377 242.546 90.175 242.023 87.9742 241.942C82.7681 241.756 77.8396 239.534 74.2479 235.752C73.5468 234.693 73.0773 233.498 72.8703 232.245C72.6634 230.992 72.7237 229.71 73.0472 228.483C73.7 226.097 76.5237 227.17 78.3185 227.92C84.1398 230.24 90.5272 231.91 95.53 235.471C102.085 240.22 109.235 240.209 116.47 241.117C104.946 236.083 95.2784 227.571 88.8198 216.772C87.359 214.242 85.7466 214.28 83.4526 215.282C77.9925 217.619 71.8282 217.703 66.2996 215.516C60.7711 213.329 56.3251 209.048 53.928 203.603C53.395 202.422 53.1634 200.348 53.8409 199.634C54.4267 199.254 55.0855 198.999 55.7753 198.887C56.4651 198.775 57.1708 198.808 57.8478 198.983C61.5902 199.675 65.2837 200.668 68.9899 201.555L69.6769 201.629L69.0682 201.261C68.4541 200.474 67.7794 199.735 67.0502 199.053C62.1888 194.719 58.7088 189.049 57.0448 182.752C56.8556 181.308 56.9227 179.841 57.2432 178.421C58.4441 178.571 59.824 178.345 60.8059 178.844C67.6194 182.044 73.6087 186.768 78.3107 192.651C77.324 188.471 76.6517 184.225 76.2993 179.946C76.2274 173.551 74.1849 167.332 70.4507 162.138C68.4312 158.52 66.5981 154.801 64.9587 150.996C64.4539 150.122 62.9417 148.961 62.2028 149.139C47.8644 152.655 36.5675 144.368 24.4071 139.432C21.8287 138.44 21.906 135.915 24.5041 134.539C26.6562 133.345 29.0252 132.593 31.4727 132.327C41.0463 131.729 50.593 133.909 58.968 138.604C57.2728 133.48 55.381 128.917 54.2573 124.183C52.7659 117.825 52.2772 111.36 55.3934 105.22C56.8449 102.373 59.039 101.627 60.8431 103.637C63.1389 106.024 65.0661 108.74 66.5612 111.696C68.5156 115.944 69.5974 120.541 69.7424 125.213C69.8874 129.885 69.0926 134.537 67.4052 138.892C66.6017 140.881 66.3322 143.046 66.6235 145.173C68.156 151.845 71.0509 158.129 75.126 163.631C76.3301 156.71 77.3346 150.3 78.6644 144.026C81.1898 132.64 85.4081 121.701 91.1784 111.573C91.9195 110.482 92.3072 109.188 92.2889 107.867C92.2706 106.547 91.8472 105.263 91.0762 104.19C88.9971 100.975 87.2415 97.5487 85.2182 94.3015C80.3444 86.3744 75.0159 79.0324 64.4914 78.56C64.1573 78.525 63.8308 78.4372 63.5241 78.2999C56.9889 76.1813 51.4841 71.6832 48.1012 65.6976C46.5974 63.093 47.7211 61.1792 50.6764 60.9365C51.6667 60.9672 52.6501 61.1156 53.6059 61.3785C61.4005 62.9557 68.8136 65.3733 74.4058 70.7274C74.7261 66.4619 75.3129 62.2209 76.1627 58.0296C76.5983 56.3393 78.9979 55.1772 80.5181 53.7786C81.9433 54.9733 83.1386 56.4186 84.0449 58.043C86.4045 65.5612 86.6641 73.0019 82.1902 80.0499C81.8913 80.6869 81.7458 81.3853 81.7651 82.0891C81.7845 82.793 81.9683 83.4828 82.3018 84.1033C86.1131 90.3616 90.1366 96.4726 94.1786 102.573C94.3612 102.889 96.045 102.76 96.1369 102.534C98.2376 96.6078 101.19 90.7852 102.002 84.6856C103.468 73.3712 97.5423 64.7369 89.4571 57.4237C77.8933 46.9592 56.2595 40.4979 41.2308 51.4816C39.5133 52.6445 38.1704 54.2815 37.3648 56.1943C35.9113 59.8831 33.8663 63.3092 31.3103 66.3378C26.5948 71.1724 21.6275 75.7542 16.4289 80.0643C15.3164 81.0539 13.1777 82.2391 12.276 81.7923C11.5431 81.3174 10.9142 80.6986 10.4273 79.9733C9.94049 79.248 9.60593 78.4314 9.4439 77.5732C9.02069 74.8567 9.20152 72.0811 9.97345 69.4443C10.7454 66.8075 12.0894 64.3746 13.9097 62.3191C17.637 57.5378 22.9902 55.3153 28.3054 52.9411L28.5468 52.8017L28.3054 52.9411L22.3423 53.0351C18.4355 53.155 14.554 52.3513 11.0129 50.6892C7.47187 49.027 4.37089 46.5534 1.96169 43.4689C-1.6276 38.9676 -0.19561 35.958 5.47341 35.6121C9.63897 35.2633 13.8297 35.337 17.9818 35.8321C26.099 37.0246 33.5589 39.7376 37.2003 48.1034C38.0515 50.0925 39.1356 49.2681 40.2949 48.5739C52.665 41.1344 65.4049 41.3696 78.4006 46.7656C80.7367 47.7237 83.0571 48.7406 85.3669 49.7388C84.9861 49.0789 84.5194 48.4725 83.979 47.9355C74.9869 40.7242 66.1836 32.9822 54.3261 30.5012C45.2632 28.6144 39.3889 22.2572 34.2802 15.21C33.326 13.9004 33.8724 11.5013 33.7188 9.60548C35.2903 9.46788 36.8732 9.52913 38.4299 9.78779C47.7893 12.4575 56.4573 17.1374 63.8297 23.5011C63.6674 21.4615 63.461 19.6457 63.369 17.8136C62.9131 12.4546 64.4826 7.12236 67.7673 2.8714C70.9343 -1.16479 74.6955 -0.954969 75.9883 3.55745C77.5921 9.10277 78.5925 14.8045 78.9721 20.5632C79.1663 22.8271 78.7959 25.1031 77.8941 27.1867C76.9922 29.2704 75.5872 31.0965 73.8052 32.5012C71.1863 34.4845 71.916 35.105 74.0966 36.3514C76.146 37.4435 78.0644 38.766 79.8146 40.2935C83.8461 43.9202 87.6621 47.7801 91.243 51.8531C93.8874 55.3371 96.314 58.9814 98.5087 62.765C99.0847 60.1699 99.3558 57.5159 99.3164 54.8569C100.126 44.7648 104.519 41.1369 111.208 38.9121C114.912 37.6919 116.158 38.9071 115.869 42.6956C114.908 52.3542 112.408 61.3632 104.386 67.7559C103.186 68.7218 102.766 69.2374 103.471 70.8888C105.06 74.3894 105.91 78.1794 105.968 82.0217C106.026 85.8639 105.291 89.6755 103.808 93.2179C100.61 101.018 96.8818 108.628 93.124 116.23C89.0562 123.888 86.1135 132.095 84.3866 140.598C87.1661 139.2 89.7453 137.436 92.0552 135.352C98.1723 129.563 103.816 123.254 110.232 117.812C112.031 116.522 113.385 114.706 114.11 112.613C114.834 110.52 114.894 108.254 114.28 106.123C113.251 101.104 112.7 95.9984 112.634 90.876C112.683 88.0399 113.293 85.2425 114.428 82.6453C115.564 80.0482 117.203 77.7027 119.25 75.7444C121.929 73.0072 124.279 73.5604 125.614 77.0313C125.932 77.9736 126.167 78.9413 126.319 79.9238C128.056 89.1848 127.074 98.7471 123.492 107.453L128.561 105.767C134.535 103.806 140.552 102.689 146.427 105.746C147.264 106.13 148.008 106.689 148.611 107.385C149.213 108.082 149.66 108.899 149.921 109.782C149.729 110.709 149.334 111.583 148.765 112.34C148.197 113.098 147.468 113.719 146.631 114.162C142.719 116.355 138.409 117.749 133.953 118.261C129.496 118.773 124.98 118.394 120.669 117.145C119.361 116.659 117.939 116.579 116.587 116.917C115.235 117.255 114.017 117.994 113.094 119.038C107.278 124.876 101.462 130.715 95.4936 136.418C92.4033 139.343 89.4742 142.547 84.8427 143.361C84.1936 143.627 83.6199 144.048 83.1717 144.588C82.7236 145.128 82.4147 145.77 82.2722 146.457C81.333 155.682 79.8112 164.969 80.1013 174.178C80.4452 190.895 86.1005 207.075 96.2471 220.372C99.8109 225.087 107.77 231.753 112.062 233.095C111.204 230.837 110.209 228.385 109.337 225.888C108.301 222.093 105.876 218.825 102.543 216.737C98.2177 214.152 94.8634 210.212 93.0005 205.527C91.2619 201.272 90.486 196.883 92.6642 192.55C94.7298 188.579 97.5913 188.217 99.4639 192.146C101.723 196.928 103.678 201.847 105.318 206.875C106.366 209.891 106.878 213.094 107.634 216.204L108.711 216.054C108.643 214.307 108.652 212.565 108.518 210.832C107.818 201.512 112.588 197.121 119.6 193.097C121.309 192.111 123.293 191.858 123.176 195.002C123.084 204.407 121.669 213.236 113.23 219.249C112.698 219.682 112.272 220.23 111.984 220.852C111.695 221.474 111.552 222.154 111.564 222.84C113.247 232.833 118.799 238.16 128.736 239.716C130.376 239.99 132.037 240.111 133.698 240.076C160.869 239.272 180.121 226.124 191.832 201.973C196.13 193.634 197.68 184.143 196.26 174.859C195.46 170.086 193.338 166.153 188.839 164.409C182.845 162.09 176.577 160.326 170.397 158.585C169.291 158.256 167.649 159.229 166.471 159.934C160.992 163.097 155.846 166.837 150.286 169.774C144.727 172.711 138.57 173.885 132.785 169.956C131.031 168.762 128.154 167.297 129.303 164.525C130.452 162.863 132.141 161.652 134.083 161.096C140.571 158.565 147.143 156.309 153.483 154.038C150.517 151.26 147.788 148.892 145.345 146.333C145.036 145.875 144.84 145.351 144.773 144.803C144.707 144.255 144.771 143.699 144.962 143.181C145.262 142.586 146.915 142.276 147.869 142.47C156.233 144.09 164.521 145.878 169.69 153.759C170.296 154.559 171.144 155.14 172.107 155.415C178.571 157.388 185.066 159.245 191.702 161.218C186.774 154.141 181.438 147.299 174.031 142.621C168.844 139.34 163.442 136.331 157.117 135.841C145.331 134.856 134.908 138.592 125.317 145.097C124.981 145.4 124.711 145.768 124.523 146.18C124.334 146.591 124.232 147.037 124.222 147.49C124.153 154.103 120.749 159.145 116.71 163.858C112.671 168.571 108.861 172.78 104.809 177.129C103.736 178.018 102.55 178.762 101.281 179.339C100.427 178.034 99.7967 176.595 99.4177 175.082C98.9095 167.024 101.574 159.092 106.842 152.985C107.273 152.488 107.766 152.055 108.167 151.55C108.569 151.045 108.666 150.741 108.5 151.011C104.145 150.846 99.7147 150.849 95.3164 150.436C94.7184 150.261 94.1702 149.946 93.7166 149.518C93.263 149.09 92.9168 148.561 92.7064 147.974C92.4819 147.285 93.5067 145.8 94.3767 145.249C97.433 142.95 100.757 141.031 104.276 139.533C109.766 137.678 115.53 136.509 120.739 140.943C121.199 141.175 121.703 141.304 122.217 141.32C122.731 141.336 123.242 141.239 123.715 141.036C126.471 139.891 129.114 138.464 131.824 137.197C141.82 132.592 152.118 130.442 163.08 133.216C162.25 132.207 161.449 131.206 160.6 130.208C158.146 127.6 156.315 124.468 155.247 121.049C154.178 117.631 153.9 114.016 154.433 110.476C154.915 107.494 156.351 106.764 158.276 108.555C166.059 115.146 171.257 124.285 172.942 134.344C173.043 135.5 173.413 136.616 174.022 137.604C174.631 138.592 175.463 139.424 176.45 140.033C185.543 146.69 193.041 154.616 197.113 165.486C199.984 173.213 200.931 181.522 199.871 189.692C202.223 184.116 204.366 178.563 206.135 172.878C207.195 169.438 209.161 165.252 208.037 162.404C207.084 159.853 202.638 158.501 199.641 156.783C191.257 151.999 186.907 144.935 187.439 135.177C187.554 132.804 187.193 129.39 190.209 129.038C191.765 128.859 194.079 131.195 195.355 132.889C199.372 138.26 203.076 143.861 207.122 149.711C206.549 146.042 207.225 142.29 209.04 139.055C210.855 135.821 213.704 133.293 217.131 131.876C218.373 131.283 220.623 130.505 221.096 131.025C221.984 132.267 222.403 133.783 222.279 135.304C221.615 144.791 217.763 153.216 213.741 161.69C211.498 166.384 209.925 171.335 208.034 176.123C211.52 174.656 214.049 172.774 216.806 171.331C219.488 169.825 222.444 168.871 225.502 168.524C228.559 168.178 231.655 168.446 234.609 169.313C235.191 169.533 235.72 169.871 236.164 170.307C236.607 170.743 236.955 171.267 237.185 171.844C237.41 172.533 236.405 173.882 235.632 174.602C234.026 176.057 232.31 177.388 230.501 178.581C224.955 182.229 219.347 186.583 212.347 185.738C206.496 184.998 203.952 186.939 201.903 192.14C200.101 196.653 196.4 200.279 194.337 204.769C188.202 218.085 177.967 229.079 165.129 236.143C149.672 244.497 132.704 245.86 115.485 244.514C112.349 244.157 109.237 243.609 106.168 242.873C103.853 242.424 102.438 242.546 101.562 245.533C100.343 248.702 98.5522 251.619 96.279 254.139C90.7109 260.579 82.0791 260.725 74.8512 263.732C72.6393 264.662 71.9491 262.952 72.896 260.818ZM70.918 205.923C66.8689 204.615 62.6311 203.837 57.6859 202.648C61.9573 211.419 74.1011 216.241 82.4695 213.021C82.9958 212.695 83.4587 212.277 83.8362 211.786C83.3921 211.331 82.8899 210.937 82.3426 210.614C78.4598 209.036 74.7462 207.236 70.8251 205.977L70.918 205.923ZM60.5424 182.42C63.9384 193.234 71.2406 198.891 80.3569 203.872C76.7701 193.714 69.7856 187.75 60.4496 182.473L60.5424 182.42ZM60.9126 107.789C60.3476 107.05 59.5348 106.541 58.6246 106.356C58.305 106.317 57.5501 107.497 57.2507 108.266C54.9355 115.407 56.3953 122.353 58.7591 129.149C59.9235 132.496 61.5208 135.691 63.3121 139.866C68.4527 127.968 67.4224 117.649 60.8305 107.861L60.9126 107.789ZM74.3149 75.245C68.351 68.5179 60.6704 65.3368 51.4332 64.2204C52.3514 66.3389 53.6864 68.2511 55.3584 69.8429C57.0305 71.4347 59.0054 72.6734 61.1652 73.4851C64.963 75.0878 68.971 76.1969 72.8999 77.4262C73.6775 77.5441 74.4685 77.5393 75.2443 77.4122C74.996 76.6429 74.6207 75.9205 74.1341 75.2749L74.3149 75.245ZM82.2119 72.9678C83.6526 67.8327 83.1307 62.3419 80.748 57.5652C79.6886 59.8365 78.8982 62.2242 78.3926 64.6799C78.3255 67.4848 78.5893 70.2883 79.1786 73.0322C79.4704 74.3335 79.8532 75.6128 80.3241 76.8607C81.0187 75.6325 81.5905 74.3386 82.0311 72.9977L82.2119 72.9678ZM16.3047 64.8805C14.7428 67.734 13.5044 70.7536 12.6127 73.8833C12.2751 74.9712 12.9556 76.3644 13.1671 77.6314L16.5275 75.9889C22.5465 70.8022 29.4264 65.8627 33.4228 58.0733C33.9351 57.2376 34.3112 56.3254 34.5371 55.3711C34.591 54.9927 33.2047 54.007 33.0562 54.0928C27.3817 57.9891 19.8704 58.7041 16.1239 64.9105L16.3047 64.8805ZM25.6868 41.1571C19.336 38.3493 12.5209 38.34 5.71539 38.6475C4.95147 38.804 4.21851 39.0847 3.54559 39.4785C3.76819 40.3498 4.13017 41.1796 4.6175 41.9356C8.30086 46.2743 13.5421 48.988 19.2051 49.4884C23.1021 49.719 27.1323 49.451 31.0694 49.7081C35.0066 49.9652 34.1609 48.5434 33.0002 45.8896C30.6436 44.1065 28.136 42.533 25.506 41.187L25.6868 41.1571ZM62.618 27.9215C59.0578 24.7583 55.3129 21.8096 51.4033 19.0911C47.6705 16.9222 43.7908 15.0177 39.7926 13.3917C39.0159 13.1795 38.214 13.0749 37.4092 13.0809L37.7707 15.5513C41.4631 20.5761 46.5313 24.4229 52.3606 26.6251C55.3886 27.5807 58.3159 28.6193 61.3146 29.567C61.7794 29.6422 62.2523 29.653 62.7198 29.5991C62.6956 29.0426 62.8084 28.2085 62.4743 27.9301L62.618 27.9215ZM70.5956 30.931C72.6719 28.8754 74.3229 26.4303 75.4547 23.735C77.3699 17.4449 74.9911 11.3517 73.4722 5.33263C72.5771 3.09598 70.9948 3.31491 70.226 4.89984C68.4522 7.85095 67.2791 11.1247 66.7741 14.533C66.8768 19.643 67.3373 24.7401 68.1521 29.7868C68.1649 31.739 69.2856 32.3075 70.452 30.9395L70.5956 30.931ZM85.5915 49.9564C85.7311 50.1983 86.0008 50.3651 86.2147 50.564C86.1503 50.4524 86.2237 50.2364 86.1836 50.2099C85.9924 50.1117 85.7945 50.027 85.5915 49.9564ZM104.356 63.9286C108.172 59.5434 110.784 54.2402 111.937 48.5378C112.121 47.731 112.235 46.9099 112.278 46.0835C112.348 44.7036 112.304 43.3401 112.363 41.9415L107.092 42.9758C105.336 45.9022 103.901 49.0096 102.81 52.2445C102.26 55.8371 102.088 59.4782 102.297 63.1079C102.361 63.6846 102.519 64.2472 102.764 64.7735C103.345 64.5995 103.886 64.3124 104.356 63.9286ZM144.133 111.809C144.933 111.279 145.698 110.697 146.421 110.066C145.515 109.398 144.614 108.182 143.71 108.159C139.487 107.913 135.251 108.09 131.064 108.687C127.474 109.76 123.994 111.171 120.67 112.902L121.116 114.059C128.92 115.01 136.743 115.951 144.112 111.771L144.133 111.809ZM121.548 103.614C124.165 95.9098 124.708 87.6486 123.121 79.6614C122.645 78.5921 122.059 77.5757 121.371 76.6288C119.614 79.7309 118.018 82.9212 116.588 86.187C114.472 91.8733 115.774 97.6455 116.754 103.331C117.119 105.378 117.72 107.363 118.217 109.382C119.507 107.569 120.622 105.638 121.548 103.614ZM58.7181 142.246C51.1045 137.474 42.237 135.1 33.2664 135.434C31.1966 135.537 29.1629 135.918 27.1018 136.165C36.5446 140.983 45.6107 146.564 56.5145 146.792C56.8437 146.838 57.1786 146.822 57.5015 146.743C59.1161 146.109 60.6985 145.419 62.2917 144.747C61.1329 143.824 59.9257 142.965 58.6752 142.171L58.7181 142.246ZM114.064 214.476C116.086 212.322 117.655 209.784 118.679 207.012C119.702 204.239 120.16 201.289 120.024 198.335C120.028 198.084 118.628 197.503 118.161 197.724C116.493 198.446 115.042 199.59 113.95 201.043C112.857 202.495 112.16 204.207 111.926 206.011C111.714 208.942 111.7 211.884 111.884 214.817C112.895 214.68 113.728 214.794 114.118 214.569L114.064 214.476ZM148.798 159.347C144.26 160.752 139.809 162.478 135.323 164.101C134.594 164.402 133.886 164.753 133.205 165.15C133.652 165.959 134.25 166.674 134.967 167.258C137.18 168.385 139.648 168.912 142.126 168.787C144.605 168.662 147.006 167.889 149.091 166.545C154.47 163.638 159.677 160.433 165.025 157.345C159.227 155.236 154.042 157.708 148.798 159.347ZM150.814 145.383L150.219 146.669C154.085 150.49 158.462 153.098 164.121 152.733L164.644 151.538L150.814 145.383ZM116.209 141.846C110.605 140.245 105.515 142.067 99.8787 144.528L98.0288 146.985C99.1133 147.277 100.301 148.005 101.287 147.783C106.377 146.605 111.426 145.228 116.475 143.851C116.914 143.634 117.302 143.325 117.612 142.947C117.147 142.57 116.737 141.988 116.209 141.846ZM116.07 149.369C108.378 155.174 102.411 162.811 102.936 174.142C109.472 167.02 116.481 161.36 120.062 152.893C120.645 151.045 121.058 149.146 121.293 147.221C119.46 147.694 117.691 148.39 116.027 149.294L116.07 149.369ZM157.63 111.855C156.909 120.556 160.632 127.089 170.103 134.272C167.996 125.8 163.676 118.037 157.587 111.78L157.63 111.855ZM215.174 151.263C216.842 146.431 218.154 141.456 219.536 136.515C219.6 135.719 219.538 134.918 219.354 134.14L217.462 134.637C212.067 138.719 209.4 143.707 210.337 150.261C210.693 152.808 211.212 155.337 211.664 157.879C213.027 155.781 214.202 153.568 215.174 151.263ZM192.879 134.691C192.361 134.212 191.814 133.766 191.24 133.355C190.93 133.924 190.709 134.537 190.582 135.174C190.442 141.58 192.002 147.327 197.436 151.334C199.979 153.165 202.661 154.766 205.965 156.928C203.588 148.484 199.079 140.793 192.873 134.595L192.879 134.691ZM209.778 183.005C216.083 183.804 221.285 180.975 226.222 177.603C228.506 176.285 230.791 174.966 233.075 173.647C233.45 173.369 233.786 173.041 234.073 172.674C233.595 172.378 233.084 172.141 232.55 171.965C228.012 170.891 223.237 171.652 219.261 174.081C215.695 176.14 212.32 178.486 208.891 180.739C208.397 181.173 207.958 181.668 207.586 182.211C208.284 182.53 209.018 182.765 209.772 182.909L209.778 183.005ZM103.634 211.121C101.761 206.076 99.9065 201.019 97.9484 195.998C97.4825 195.204 96.8941 194.489 96.205 193.879C95.6073 194.777 95.1578 195.765 94.8737 196.806C94.2718 203.355 97.7282 207.883 102.143 211.883L103.634 211.121ZM76.5759 230.563C76.1228 231.01 75.7867 231.562 75.5971 232.17C77.498 233.876 79.2804 236.32 81.5404 236.975C86.0766 238.073 90.6779 238.879 95.3162 239.39C90.2556 233.927 83.2524 232.563 76.5388 230.585L76.5759 230.563ZM96.136 239.437L95.7344 239.471L95.8096 239.601C95.8096 239.601 96.0246 239.502 96.0989 239.459L96.136 239.437ZM97.997 245.234C90.9601 249.644 81.8834 250.221 77.5017 258.63C88.0892 257.925 95.831 252.934 97.9599 245.256L97.997 245.234Z" fill="black" fill-opacity="0.1"/>
</svg>
