<svg width="119" height="124" viewBox="0 0 119 124" fill="none" xmlns="http://www.w3.org/2000/svg">
<g clip-path="url(#clip0_420_5951)">
<path d="M-27.8961 65.5603C-19.2373 62.5255 -10.5718 59.5975 -2.05479 56.1742C6.32413 52.7826 14.3175 48.5108 21.7926 43.4297C36.0204 33.7212 48.6065 21.5022 64.1286 13.7025C71.8666 9.60892 80.411 7.26272 89.1671 6.82732C89.3106 6.83749 89.4476 6.89225 89.5591 6.98403C89.6705 7.07582 89.751 7.20006 89.7891 7.3394C89.8272 7.47874 89.8212 7.62624 89.7718 7.76143C89.7224 7.89661 89.6322 8.01273 89.5137 8.0936L66.8818 18.9468C59.3389 22.5823 51.9571 26.4015 44.3251 29.9778C43.2538 30.5964 42.2149 28.8445 43.3547 28.2971C50.8856 24.6408 58.543 21.2988 66.151 17.681L88.8428 6.93158C89.0464 7.28434 89.0646 7.74414 89.1773 8.17712C72.461 8.53211 57.9485 18.1283 45.5075 28.4098C38.648 34.0855 31.9942 39.9745 24.7529 45.179C17.5388 50.2763 9.76642 54.5316 1.58495 57.8633C-7.85978 61.6725 -17.5218 64.9228 -27.3516 67.5976C-28.5993 67.9583 -29.0719 66.0455 -27.8602 65.6225L-27.8961 65.5603Z" fill="black" fill-opacity="0.1"/>
<path d="M-26.2244 64.9827C-12.0329 63.0143 -0.0282764 53.2614 14.7409 54.1966C21.886 54.9325 28.917 56.5614 35.6703 59.0453C42.7611 61.3837 49.7134 64.1319 56.4921 67.2762C64.1036 70.8853 71.5073 74.9243 78.6673 79.3738C78.8348 79.4753 78.9654 79.6281 79.0399 79.8095C79.1143 79.9909 79.1286 80.1912 79.0805 80.3806C79.0324 80.57 78.9246 80.7384 78.7731 80.8607C78.6215 80.983 78.4344 81.0527 78.2396 81.0595C70.6538 80.9571 62.8619 80.9736 56.053 77.2686C49.2441 73.5636 44.3261 66.9961 37.5344 63.2258C37.351 63.1226 37.2155 62.9507 37.1577 62.748C37.0999 62.5453 37.1246 62.3283 37.2263 62.1449C37.328 61.9614 37.4984 61.8264 37.7 61.7697C37.9017 61.713 38.118 61.7391 38.3014 61.8423C44.8171 65.4676 50.0163 70.9044 56.4117 74.6545C62.8071 78.4045 70.7729 79.1176 78.3209 79.2972C78.1743 79.8522 78.0072 80.419 77.8726 80.9948C71.6378 77.2241 65.1753 73.8491 58.5235 70.8899C51.7749 67.7788 44.8567 65.0573 37.8027 62.7389C31.0822 60.3141 24.1541 58.5248 17.1091 57.3944C10.1228 56.6193 3.06322 57.5186 -3.48901 60.0183C-10.8451 62.5499 -18.0857 65.9002 -25.945 66.3707C-26.7102 66.4252 -26.8972 65.1498 -26.1353 65.042L-26.2244 64.9827Z" fill="black" fill-opacity="0.1"/>
<path d="M6.61322 53.9642C12.8595 55.6939 19.2263 56.9389 25.6571 57.6883C31.6255 58.2304 37.6361 57.771 43.4418 56.3291C54.217 53.6771 64.2321 48.6142 74.98 45.8672C80.8218 44.2467 86.9323 43.8028 92.9602 44.5612L92.4741 46.3359C76.9231 42.1659 60.4257 43.8212 46.0737 50.9914C41.9978 53.0159 38.1778 55.5186 34.6933 58.4473C34.5803 58.5671 34.4428 58.6609 34.29 58.7221C34.1372 58.7833 33.9729 58.8106 33.8082 58.8021C33.6435 58.7936 33.4824 58.7494 33.3358 58.6727C33.1893 58.5959 33.0608 58.4885 32.9592 58.3576C32.8576 58.2267 32.7852 58.0754 32.7471 57.9142C32.709 57.753 32.7059 57.5856 32.7382 57.4236C32.7705 57.2615 32.8374 57.1087 32.9342 56.9754C33.0311 56.8421 33.1556 56.7316 33.2993 56.6514C46.3796 46.5675 62.625 41.4815 79.1536 42.2957C83.8047 42.5486 88.4198 43.287 92.9243 44.4989C94.0973 44.8178 93.5804 46.4442 92.4381 46.2737C81.1609 44.6781 70.2669 48.8374 59.924 52.7615C49.5811 56.6856 38.6464 60.5364 27.1522 59.5641C20.0659 58.7482 13.0621 57.3014 6.22378 55.2405C5.35603 55.0221 5.70953 53.6836 6.57728 53.902L6.61322 53.9642Z" fill="black" fill-opacity="0.1"/>
<path d="M-27.3025 65.4943C-22.3572 64.2 -17.1774 64.047 -12.1506 65.0466C-6.89485 65.9329 -1.72152 67.2688 3.31264 69.0395C14.6864 72.848 26.2507 76.4635 37.2508 81.2901C43.0722 83.6545 48.5421 86.8193 53.5027 90.6932C54.0647 91.1433 53.2814 91.9276 52.7399 91.4655C48.3342 88.0364 43.4642 85.2575 38.2792 83.2141C33.1287 81.097 27.732 79.6477 22.4628 77.8482L5.32095 71.947C0.518289 70.2279 -4.38052 68.7971 -9.34933 67.6623C-12.2138 67.0214 -15.1281 66.6392 -18.0573 66.5202C-20.9694 66.5076 -23.8758 66.7418 -26.7456 67.2202C-26.9593 67.251 -27.1774 67.2019 -27.3583 67.0822C-27.5393 66.9625 -27.6706 66.7806 -27.7272 66.5709C-27.7839 66.3612 -27.762 66.1385 -27.6656 65.9449C-27.5693 65.7513 -27.4053 65.6005 -27.2047 65.5209L-27.3025 65.4943Z" fill="black" fill-opacity="0.1"/>
</g>
<defs>
<clipPath id="clip0_420_5951">
<rect width="132.34" height="66.6102" fill="white" transform="matrix(-0.866025 0.5 0.5 0.866025 85.6099 0)"/>
</clipPath>
</defs>
</svg>
