<svg width="243" height="312" viewBox="0 0 243 312" fill="none" xmlns="http://www.w3.org/2000/svg">
<g opacity="0.1">
<path fill-rule="evenodd" clip-rule="evenodd" d="M261.591 -36.3584H208.416L191.969 14.2659L192.044 14.3179L208.416 -36.0983H261.585L277.963 14.3179L278.032 14.2659L261.591 -36.3584ZM255.868 -28.1908L255.862 -28.2023H214.139L214.133 -28.1908H255.868ZM235.003 7.5607L240.934 3.25434L238.664 -3.72254H231.342L229.066 3.25434L235.003 7.5607ZM183 17.1908L202.86 -44H267.14L287 17.1908L235.003 55L183 17.1908Z" fill="white"/>
<path fill-rule="evenodd" clip-rule="evenodd" d="M267.331 -43.6186H202.663L182.682 17.87L234.994 55.8686L287.317 17.87L267.331 -43.6186ZM174 20.6885L197.302 -51H272.692L296 20.6885L234.994 65L174 20.6885Z" fill="white"/>
<path fill-rule="evenodd" clip-rule="evenodd" d="M273.076 -51.8766H196.928L173.395 20.471L234.999 65.1911L296.604 20.471L273.076 -51.8766ZM165 23.1956L191.752 -59H278.254L305 23.1956L235 74L165 23.1956Z" fill="white"/>
<path fill-rule="evenodd" clip-rule="evenodd" d="M278.816 -60.1286H191.185L164.092 23.0784L234.998 74.4958L305.904 23.0784L278.816 -60.1286ZM156 25.7036L186.179 -67H283.815L314 25.7036L234.997 83L156 25.7036Z" fill="white"/>
<path fill-rule="evenodd" clip-rule="evenodd" d="M283.79 -68.3846H185.222L154.754 25.6845L234.503 83.8158L314.252 25.6845L283.79 -68.3846ZM147 28.2107L180.429 -75H288.577L322 28.2107L234.503 92L147 28.2107Z" fill="white"/>
<path fill-rule="evenodd" clip-rule="evenodd" d="M289.522 -76.6345H179.472L145.471 28.2868L234.5 93.1238L323.529 28.2868L289.522 -76.6345ZM138 30.7142L174.865 -83H294.129L331 30.7142L234.5 101L138 30.7142Z" fill="white"/>
<path fill-rule="evenodd" clip-rule="evenodd" d="M295.265 -84.8845H173.735L136.176 30.8842L234.497 102.432L332.824 30.8842L295.265 -84.8845ZM129 33.2186L169.304 -91H299.701L340 33.2186L234.497 110L129 33.2186Z" fill="white"/>
<path fill-rule="evenodd" clip-rule="evenodd" d="M301.013 -93.139H167.994L126.881 33.4932L234.498 111.756L342.121 33.4932L301.013 -93.139ZM120 35.7235L163.739 -99H305.261L349 35.7235L234.497 119L120 35.7235Z" fill="white"/>
<path fill-rule="evenodd" clip-rule="evenodd" d="M306.749 -100.388H162.252L117.584 37.0893L234.498 122.062L351.417 37.0893L306.749 -100.388ZM111 39.2328L158.173 -106H310.821L358 39.2328L234.497 129L111 39.2328Z" fill="white"/>
<path fill-rule="evenodd" clip-rule="evenodd" d="M312.494 -108.648H156.51L108.297 39.7004L234.499 131.374L360.708 39.7004L312.494 -108.648ZM102 41.7457L152.616 -114H316.384L367 41.7457L234.5 138L102 41.7457Z" fill="white"/>
<path fill-rule="evenodd" clip-rule="evenodd" d="M318.235 -116.891H150.766L99 42.3044L234.5 140.687L370.001 42.3044L318.235 -116.891ZM93 44.2514L147.054 -122H321.946L376 44.2514L234.5 147L93 44.2514Z" fill="white"/>
<path fill-rule="evenodd" clip-rule="evenodd" d="M323.978 -125.145H145.016L89.7012 44.9003L234.5 149.998L379.298 44.9003L323.978 -125.145ZM84 46.755L141.494 -130H327.5L385 46.755L234.5 156L84 46.755Z" fill="white"/>
<path fill-rule="evenodd" clip-rule="evenodd" d="M329.729 -133.41H139.282L80.4141 47.5033L234.5 159.316L388.597 47.5033L329.729 -133.41ZM75 49.2656L135.938 -138H333.068L394 49.2656L234.5 165L75 49.2656Z" fill="white"/>
<path fill-rule="evenodd" clip-rule="evenodd" d="M335.465 -141.652H133.535L71.1211 50.1071L234.497 168.627L397.878 50.1071L335.465 -141.652ZM66 51.7656L130.369 -146H338.631L403 51.7656L234.497 174L66 51.7656Z" fill="white"/>
<path fill-rule="evenodd" clip-rule="evenodd" d="M341.215 -149.906H127.791L61.8225 52.718L234.503 177.944L407.183 52.718L341.215 -149.906ZM58.2056 55.148L57 54.2727L124.809 -154H344.203L412 54.2727L234.503 183L58.2056 55.148Z" fill="white"/>
<path fill-rule="evenodd" clip-rule="evenodd" d="M346.949 -158.154H122.045L52.5232 55.3102L234.497 187.25L416.471 55.3102L346.949 -158.154ZM48 56.7842L119.241 -162H349.747L421 56.7842L234.497 192L48 56.7842Z" fill="white"/>
<path fill-rule="evenodd" clip-rule="evenodd" d="M352.701 -165.413H116.301L43.2305 58.9211L234.501 197.561L425.771 58.9211L352.701 -165.413ZM39 60.2856L113.68 -169H355.32L430 60.2856L234.5 202L39 60.2856Z" fill="white"/>
<path fill-rule="evenodd" clip-rule="evenodd" d="M358.639 -173.667H111.361L34.9316 61.5226L234.997 206.872L435.068 61.5226L358.639 -173.667ZM31 62.7949L108.937 -177H361.063L439 62.7949L234.997 211L31 62.7949Z" fill="white"/>
<path fill-rule="evenodd" clip-rule="evenodd" d="M364.382 -181.909H105.611L25.627 64.1205L234.996 216.183L444.371 64.1205L364.382 -181.909ZM22.9041 65.9626L22 65.3006L103.378 -185H366.628L448 65.3006L234.997 220L22.9041 65.9626Z" fill="white"/>
<path fill-rule="evenodd" clip-rule="evenodd" d="M370.123 -190.168H99.8758L16.3457 66.7233L234.999 225.494L453.659 66.7233L370.123 -190.168ZM13 67.8055L97.8144 -193H372.191L457 67.8055L235 229L13 67.8055Z" fill="white"/>
<path fill-rule="evenodd" clip-rule="evenodd" d="M462.958 69.3305L375.873 -198.415H94.1319L7.04102 69.3305L234.999 234.811L462.958 69.3305ZM4.76042 70.8732L4 70.3206L91.955 -200.108L92.2488 -201H377.751L466 70.3206L235.76 237.453L235 238L4.76042 70.8732Z" fill="white"/>
<path fill-rule="evenodd" clip-rule="evenodd" d="M381.618 -206.669H88.3815L-2.25195 71.9262L235.003 244.116L472.251 71.9262L381.618 -206.669ZM-5 72.8241L86.6879 -209H383.312L475 72.8241L235.003 247L-5 72.8241Z" fill="white"/>
<path fill-rule="evenodd" clip-rule="evenodd" d="M387.357 -214.922H82.6368L-11.5566 74.5392L235 253.433L481.551 74.5392L387.357 -214.922ZM-13.3891 75.7766L-14 75.3392L80.8849 -216.281L81.1211 -217H388.879L483.764 74.6197L484 75.3392L235 256L-13.3891 75.7766Z" fill="white"/>
<path fill-rule="evenodd" clip-rule="evenodd" d="M393.109 -222.176H76.8921L-20.8496 78.1346L234.998 263.738L490.851 78.1346L393.109 -222.176ZM-22.464 79.2226L-23 78.8312L75.3527 -223.367L75.5659 -224H394.434L492.798 78.1981L493 78.8312L234.997 266L-22.464 79.2226Z" fill="white"/>
<path fill-rule="evenodd" clip-rule="evenodd" d="M500.132 80.7407L398.85 -230.412H71.1552L-30.1328 80.7407L234.999 273.049L500.132 80.7407ZM-31.5273 81.6787L-32 81.3392L69.8298 -231.448L70.0086 -232H399.997L501.821 80.7924L502 81.3392L235.467 274.655L235 275L-31.5273 81.6787Z" fill="white"/>
<path fill-rule="evenodd" clip-rule="evenodd" d="M404.595 -238.671H65.4046L-39.4376 83.3434L234.997 282.366L509.432 83.3434L404.595 -238.671ZM-40.6137 84.1376L-41 83.8499L64.2919 -239.534L64.4361 -240H405.558L510.856 83.3952L511 83.8499L234.997 284L-40.6137 84.1376Z" fill="white"/>
<path fill-rule="evenodd" clip-rule="evenodd" d="M518.731 85.947L410.34 -246.924H59.6641L-48.7324 85.947L234.999 291.665L518.731 85.947ZM-49.6771 86.5858L-50 86.3498L58.7598 -247.632L58.8809 -248H411.125L519.879 85.9815L520 86.3498L235.323 292.764L235 293L-49.6771 86.5858Z" fill="white"/>
<path fill-rule="evenodd" clip-rule="evenodd" d="M528.02 89.1614L416.081 -255.181H53.9186L-58.0254 89.1614L234.994 301.974L528.02 89.1614ZM-58.752 89.6515L-59 89.4785L53.3188 -256H416.681L529 89.4785L235.236 302.821L234.994 303L-58.752 89.6515Z" fill="white"/>
<path fill-rule="evenodd" clip-rule="evenodd" d="M47.7532 -264L47.6898 -263.798L-68 91.9807L-67.827 92.1075L235 312L235.167 311.873L538 91.9807L537.942 91.7847L422.253 -264H47.7532ZM-67.3262 91.7617L48.179 -263.429H421.825L537.324 91.7617L234.999 311.279L-67.3262 91.7617Z" fill="white"/>
</g>
</svg>
