<svg width="127" height="22" viewBox="0 0 127 22" fill="none" xmlns="http://www.w3.org/2000/svg">
<path d="M13.1597 2.3788C13.179 2.35447 13.2031 2.33433 13.2304 2.31961C13.2578 2.30488 13.2879 2.29587 13.3188 2.29312C13.3498 2.29038 13.381 2.29396 13.4105 2.30365C13.44 2.31333 13.4673 2.32892 13.4906 2.34947L14.3348 3.0938L11.6774 6.41672H13.4383L15.3688 4.00405L16.8832 5.33963C16.9279 5.3792 16.9555 5.4347 16.96 5.49429C16.9644 5.55388 16.9454 5.61285 16.907 5.65863L16.2745 6.41672H18.0565C18.2772 6.09357 18.3722 5.70088 18.3236 5.31257C18.275 4.92427 18.0861 4.56712 17.7925 4.30838L14.4008 1.3173C14.2372 1.1732 14.0459 1.06397 13.8387 0.996276C13.6314 0.928581 13.4126 0.903844 13.1954 0.923575C12.9783 0.943307 12.7675 1.00709 12.5758 1.11104C12.3842 1.21498 12.2157 1.3569 12.0808 1.52813L8.228 6.41672H9.97883L13.1597 2.3788ZM4.8125 5.95838C4.63016 5.95838 4.4553 6.03082 4.32636 6.15975C4.19743 6.28868 4.125 6.46355 4.125 6.64588C4.125 6.82822 4.19743 7.00309 4.32636 7.13202C4.4553 7.26095 4.63016 7.33338 4.8125 7.33338H16.7292C17.5193 7.33338 18.2771 7.64726 18.8358 8.20596C19.3945 8.76466 19.7083 9.52243 19.7083 10.3125V16.2709C19.7083 17.061 19.3945 17.8188 18.8358 18.3775C18.2771 18.9362 17.5193 19.25 16.7292 19.25H5.72917C4.93904 19.25 4.18128 18.9362 3.62258 18.3775C3.06388 17.8188 2.75 17.061 2.75 16.2709V6.64588C2.75 6.09887 2.9673 5.57427 3.35409 5.18748C3.74089 4.80068 4.26549 4.58338 4.8125 4.58338H8.7725L7.67983 5.95838H4.8125ZM14.2083 13.5209C14.2083 13.9004 14.5163 14.2084 14.8958 14.2084H16.7292C16.9115 14.2084 17.0864 14.136 17.2153 14.007C17.3442 13.8781 17.4167 13.7032 17.4167 13.5209C17.4167 13.3385 17.3442 13.1637 17.2153 13.0347C17.0864 12.9058 16.9115 12.8334 16.7292 12.8334H14.8958C14.7135 12.8334 14.5386 12.9058 14.4097 13.0347C14.2808 13.1637 14.2083 13.3385 14.2083 13.5209Z" fill="#1D1D1D"/>
<path d="M45.5847 5.832V17H43.3447V9.736L40.3527 17H38.6567L35.6487 9.736V17H33.4087V5.832H35.9527L39.5047 14.136L43.0567 5.832H45.5847ZM56.2793 8.136L50.7913 21.192H48.4073L50.3273 16.776L46.7753 8.136H49.2873L51.5753 14.328L53.8953 8.136H56.2793ZM67.6353 11.272C68.2646 11.3893 68.782 11.704 69.1873 12.216C69.5926 12.728 69.7953 13.3147 69.7953 13.976C69.7953 14.5733 69.646 15.1013 69.3473 15.56C69.0593 16.008 68.638 16.36 68.0833 16.616C67.5286 16.872 66.8726 17 66.1153 17H61.2993V5.832H65.9073C66.6646 5.832 67.3153 5.95467 67.8593 6.2C68.414 6.44533 68.83 6.78667 69.1073 7.224C69.3953 7.66133 69.5393 8.15733 69.5393 8.712C69.5393 9.36267 69.3633 9.90667 69.0113 10.344C68.67 10.7813 68.2113 11.0907 67.6353 11.272ZM63.5393 10.44H65.5873C66.1206 10.44 66.5313 10.3227 66.8193 10.088C67.1073 9.84267 67.2513 9.496 67.2513 9.048C67.2513 8.6 67.1073 8.25333 66.8193 8.008C66.5313 7.76267 66.1206 7.64 65.5873 7.64H63.5393V10.44ZM65.7953 15.176C66.3393 15.176 66.7606 15.048 67.0593 14.792C67.3686 14.536 67.5233 14.1733 67.5233 13.704C67.5233 13.224 67.3633 12.8507 67.0433 12.584C66.7233 12.3067 66.2913 12.168 65.7473 12.168H63.5393V15.176H65.7953ZM71.0046 12.536C71.0046 11.64 71.1806 10.8453 71.5326 10.152C71.8952 9.45867 72.3806 8.92533 72.9886 8.552C73.6072 8.17867 74.2952 7.992 75.0526 7.992C75.7139 7.992 76.2899 8.12533 76.7806 8.392C77.2819 8.65867 77.6819 8.99467 77.9806 9.4V8.136H80.2366V17H77.9806V15.704C77.6926 16.12 77.2926 16.4667 76.7806 16.744C76.2792 17.0107 75.6979 17.144 75.0366 17.144C74.2899 17.144 73.6072 16.952 72.9886 16.568C72.3806 16.184 71.8952 15.6453 71.5326 14.952C71.1806 14.248 71.0046 13.4427 71.0046 12.536ZM77.9806 12.568C77.9806 12.024 77.8739 11.56 77.6606 11.176C77.4472 10.7813 77.1592 10.4827 76.7966 10.28C76.4339 10.0667 76.0446 9.96 75.6286 9.96C75.2126 9.96 74.8286 10.0613 74.4766 10.264C74.1246 10.4667 73.8366 10.7653 73.6126 11.16C73.3992 11.544 73.2926 12.0027 73.2926 12.536C73.2926 13.0693 73.3992 13.5387 73.6126 13.944C73.8366 14.3387 74.1246 14.6427 74.4766 14.856C74.8392 15.0693 75.2232 15.176 75.6286 15.176C76.0446 15.176 76.4339 15.0747 76.7966 14.872C77.1592 14.6587 77.4472 14.36 77.6606 13.976C77.8739 13.5813 77.9806 13.112 77.9806 12.568ZM84.6643 5.16V17H82.4243V5.16H84.6643ZM86.3014 12.536C86.3014 11.64 86.4774 10.8453 86.8294 10.152C87.1921 9.45867 87.6774 8.92533 88.2854 8.552C88.9041 8.17867 89.5921 7.992 90.3494 7.992C91.0108 7.992 91.5868 8.12533 92.0774 8.392C92.5788 8.65867 92.9788 8.99467 93.2774 9.4V8.136H95.5334V17H93.2774V15.704C92.9894 16.12 92.5894 16.4667 92.0774 16.744C91.5761 17.0107 90.9948 17.144 90.3334 17.144C89.5868 17.144 88.9041 16.952 88.2854 16.568C87.6774 16.184 87.1921 15.6453 86.8294 14.952C86.4774 14.248 86.3014 13.4427 86.3014 12.536ZM93.2774 12.568C93.2774 12.024 93.1708 11.56 92.9574 11.176C92.7441 10.7813 92.4561 10.4827 92.0934 10.28C91.7308 10.0667 91.3414 9.96 90.9254 9.96C90.5094 9.96 90.1254 10.0613 89.7734 10.264C89.4214 10.4667 89.1334 10.7653 88.9094 11.16C88.6961 11.544 88.5894 12.0027 88.5894 12.536C88.5894 13.0693 88.6961 13.5387 88.9094 13.944C89.1334 14.3387 89.4214 14.6427 89.7734 14.856C90.1361 15.0693 90.5201 15.176 90.9254 15.176C91.3414 15.176 91.7308 15.0747 92.0934 14.872C92.4561 14.6587 92.7441 14.36 92.9574 13.976C93.1708 13.5813 93.2774 13.112 93.2774 12.568ZM102.633 8.008C103.689 8.008 104.543 8.344 105.193 9.016C105.844 9.67733 106.169 10.6053 106.169 11.8V17H103.929V12.104C103.929 11.4 103.753 10.8613 103.401 10.488C103.049 10.104 102.569 9.912 101.961 9.912C101.343 9.912 100.852 10.104 100.489 10.488C100.137 10.8613 99.9612 11.4 99.9612 12.104V17H97.7212V8.136H99.9612V9.24C100.26 8.856 100.639 8.55733 101.097 8.344C101.567 8.12 102.079 8.008 102.633 8.008ZM107.723 12.568C107.723 11.6507 107.91 10.8507 108.283 10.168C108.657 9.47467 109.174 8.94133 109.835 8.568C110.497 8.184 111.254 7.992 112.107 7.992C113.206 7.992 114.113 8.26933 114.827 8.824C115.553 9.368 116.038 10.136 116.283 11.128H113.867C113.739 10.744 113.521 10.4453 113.211 10.232C112.913 10.008 112.539 9.896 112.091 9.896C111.451 9.896 110.945 10.1307 110.571 10.6C110.198 11.0587 110.011 11.7147 110.011 12.568C110.011 13.4107 110.198 14.0667 110.571 14.536C110.945 14.9947 111.451 15.224 112.091 15.224C112.998 15.224 113.59 14.8187 113.867 14.008H116.283C116.038 14.968 115.553 15.7307 114.827 16.296C114.102 16.8613 113.195 17.144 112.107 17.144C111.254 17.144 110.497 16.9573 109.835 16.584C109.174 16.2 108.657 15.6667 108.283 14.984C107.91 14.2907 107.723 13.4853 107.723 12.568ZM126.164 12.376C126.164 12.696 126.143 12.984 126.1 13.24H119.62C119.674 13.88 119.898 14.3813 120.292 14.744C120.687 15.1067 121.172 15.288 121.748 15.288C122.58 15.288 123.172 14.9307 123.524 14.216H125.94C125.684 15.0693 125.194 15.7733 124.468 16.328C123.743 16.872 122.852 17.144 121.796 17.144C120.943 17.144 120.175 16.9573 119.492 16.584C118.82 16.2 118.292 15.6613 117.908 14.968C117.535 14.2747 117.348 13.4747 117.348 12.568C117.348 11.6507 117.535 10.8453 117.908 10.152C118.282 9.45867 118.804 8.92533 119.476 8.552C120.148 8.17867 120.922 7.992 121.796 7.992C122.639 7.992 123.391 8.17333 124.052 8.536C124.724 8.89867 125.242 9.416 125.604 10.088C125.978 10.7493 126.164 11.512 126.164 12.376ZM123.844 11.736C123.834 11.16 123.626 10.7013 123.22 10.36C122.815 10.008 122.319 9.832 121.732 9.832C121.178 9.832 120.708 10.0027 120.324 10.344C119.951 10.6747 119.722 11.1387 119.636 11.736H123.844Z" fill="#1D1D1D"/>
</svg>
